PathFileType	4	(X/Y/Z)	C:/Users/opensim2020/Desktop/walking_exp_matlab/subject03_walking12_straight_04.trc																																																																																																																																														
DataRate	CameraRate	NumFrames	NumMarkers	Units	OrigDataRate	OrigDataStartFrame	OrigNumFrames																																																																																																																																										
100	100	5	48	mm	100	2146	202																																																																																																																																										
Frame#	Time	LFHD			RFHD			LBHD			RBHD			C7			T10			CLAV			STRN			RBAK			LSHO			LUPA			LELB			LFRM			LWRA			LWRB			LFIN			RSHO			RUPA			RELB			RFRM			RWRA			RWRB			RFIN			LASI			RASI			LPSI			RPSI			LTHI			LKNE			LTIB			LANK			LHEE			LTOE			RTHI			RKNE			RTIB			RANK			RHEE			RTOE			*39			*40			*41			*42			*43			*44			*45			*46			*47		
		X1	Y1	Z1	X2	Y2	Z2	X3	Y3	Z3	X4	Y4	Z4	X5	Y5	Z5	X6	Y6	Z6	X7	Y7	Z7	X8	Y8	Z8	X9	Y9	Z9	X10	Y10	Z10	X11	Y11	Z11	X12	Y12	Z12	X13	Y13	Z13	X14	Y14	Z14	X15	Y15	Z15	X16	Y16	Z16	X17	Y17	Z17	X18	Y18	Z18	X19	Y19	Z19	X20	Y20	Z20	X21	Y21	Z21	X22	Y22	Z22	X23	Y23	Z23	X24	Y24	Z24	X25	Y25	Z25	X26	Y26	Z26	X27	Y27	Z27	X28	Y28	Z28	X29	Y29	Z29	X30	Y30	Z30	X31	Y31	Z31	X32	Y32	Z32	X33	Y33	Z33	X34	Y34	Z34	X35	Y35	Z35	X36	Y36	Z36	X37	Y37	Z37	X38	Y38	Z38	X39	Y39	Z39	X40	Y40	Z40	X41	Y41	Z41	X42	Y42	Z42	X43	Y43	Z43	X44	Y44	Z44	X45	Y45	Z45	X46	Y46	Z46	X47	Y47	Z47	X48	Y48	Z48
																																																																																																																																																	
1	0	-1526.33289	1609.94531	-1398.49988	-1544.86072	1602.8761	-1267.15845	-1655.63464	1573.90906	-1415.11951	-1669.23975	1566.2793	-1285.12097	-1698.92334	1408.58215	-1372.06909	-1739.84741	1095.22302	-1387.23071	-1581.89893	1328.56042	-1358.24377	-1539.28503	1162.84204	-1365.95691	-1763.33057	1228.82129	-1290.1239	-1599.16235	1373.89221	-1513.76404	-1572.4126	1193.10693	-1609.48779	-1536.05725	1079.44189	-1640.0321	-1475.38892	964.31519	-1653.13062	-1427.40991	852.0899	-1637.28809	-1446.40002	859.92456	-1688.79321	-1407.80994	784.64948	-1691.15808	-1645.56824	1352.04407	-1205.67029	-1652.81128	1127.50537	-1136.44092	-1638.77698	1015.0368	-1125.17957	-1629.53479	878.1814	-1123.27148	-1602.88916	781.98553	-1156.69739	-1637.23022	777.96185	-1115.5293	-1612.74146	708.85718	-1120.93201	-1575.83984	931.28583	-1501.07507	-1585.21094	924.37158	-1262.64246	-1737.19324	961.85327	-1454.10547	-1744.42102	955.12024	-1307.85376	-1676.82324	640.6192	-1556.47949	-1708.39648	465.27078	-1528.92871	-1797.33521	286.86295	-1543.09277	-1857.01172	81.97358	-1517.78992	-1899.60486	47.63112	-1480.22742	-1709.45642	36.71446	-1516.5835	-1559.3844	638.13013	-1230.12927	-1472.44958	482.63235	-1270.94177	-1499.09485	291.24017	-1291.05127	-1510.04846	81.95499	-1358.95508	-1547.47156	53.56303	-1418.83936	-1374.22351	48.90702	-1364.88477	NaN	NaN	NaN	NaN	NaN	NaN	NaN	NaN	NaN	NaN	NaN	NaN	NaN	NaN	NaN	NaN	NaN	NaN	NaN	NaN	NaN	NaN	NaN	NaN	NaN	NaN	NaN
2	0.01	-1513.86414	1608.34644	-1400.2561	-1533.11292	1601.15857	-1268.94141	-1643.19788	1572.24548	-1417.84509	-1657.27246	1564.37292	-1287.67688	-1686.58923	1406.95313	-1374.47961	-1730.13245	1094.5387	-1391.0885	-1569.63049	1326.6781	-1360.49451	-1527.5199	1160.80713	-1368.58154	-1751.22986	1226.86401	-1292.99207	-1586.20667	1372.52869	-1515.57947	-1556.35706	1193.46069	-1612.49829	-1517.78601	1080.91687	-1643.86084	-1452.73608	968.39716	-1656.51099	-1399.95593	858.59424	-1640.09729	-1419.14417	865.34674	-1691.59351	-1376.32104	792.79901	-1693.99231	-1633.40942	1349.90771	-1207.94727	-1642.92651	1125.74109	-1137.86987	-1630.55017	1013.13123	-1125.80969	-1624.16479	876.0556	-1122.68127	-1599.50928	779.02454	-1155.03735	-1634.13269	776.12079	-1113.93408	-1611.6073	706.30298	-1119.04297	-1564.95593	929.5929	-1504.15076	-1572.65015	922.98572	-1265.30359	-1726.11194	959.18127	-1456.20313	-1732.57202	952.79095	-1309.77698	-1668.26172	639.41956	-1558.08582	-1702.64063	464.51968	-1530.08203	-1793.62952	287.8862	-1544.45642	-1857.40491	83.9518	-1519.19299	-1899.32056	49.40108	-1480.64905	-1709.36389	36.41521	-1516.48767	-1546.90576	636.54919	-1231.14661	-1459.88245	481.36395	-1273.32739	-1475.27856	289.15216	-1290.8573	-1471.50818	78.66435	-1356.75256	-1507.14697	48.39714	-1416.63647	-1333.91858	51.50466	-1363.14355	NaN	NaN	NaN	NaN	NaN	NaN	NaN	NaN	NaN	NaN	NaN	NaN	NaN	NaN	NaN	NaN	NaN	NaN	NaN	NaN	NaN	NaN	NaN	NaN	NaN	NaN	NaN
3	0.02	-1501.39209	1606.7124	-1402.01331	-1521.06201	1599.29138	-1270.79675	-1630.57715	1570.42041	-1420.17444	-1645.26257	1562.51892	-1290.05042	-1674.18079	1405.32971	-1376.6051	-1718.34351	1092.86438	-1392.78882	-1557.3761	1324.74036	-1362.66357	-1515.64697	1158.71606	-1371.22839	-1739.01746	1224.99402	-1295.52966	-1573.28088	1371.02295	-1517.32336	-1540.5321	1193.78711	-1615.33289	-1499.98438	1082.49829	-1647.61389	-1430.61646	972.5343	-1659.49866	-1373.3114	865.3775	-1642.44177	-1392.50146	870.77405	-1693.77771	-1345.62585	801.50085	-1696.26196	-1621.11182	1347.76892	-1210.05566	-1632.74475	1124.00037	-1139.3634	-1622.24585	1011.34113	-1126.44214	-1618.65137	874.27771	-1122.20557	-1595.92664	776.32031	-1153.6853	-1630.69141	774.52039	-1112.5791	-1610.08215	703.88739	-1117.36365	-1553.71118	927.80615	-1506.90234	-1559.66235	921.50458	-1267.90735	-1714.89465	956.49664	-1457.83044	-1720.3634	950.36292	-1311.34863	-1659.40063	638.43091	-1559.84485	-1696.45789	463.94757	-1531.16516	-1790.30798	288.05612	-1544.79688	-1855.25598	84.25626	-1518.08325	-1899.1001	51.67365	-1480.95068	-1709.3927	36.44694	-1516.63745	-1534.7168	634.45142	-1232.34167	-1447.58313	479.82303	-1276.15161	-1452.21631	287.58838	-1290.42883	-1434.84912	76.95457	-1353.203	-1468.52563	44.42212	-1413.08521	-1295.32349	55.67701	-1360.24695	NaN	NaN	NaN	NaN	NaN	NaN	NaN	NaN	NaN	NaN	NaN	NaN	NaN	NaN	NaN	NaN	NaN	NaN	NaN	NaN	NaN	NaN	NaN	NaN	NaN	NaN	NaN
4	0.03	-1488.80151	1605.07385	-1403.651	-1509.15344	1597.84045	-1272.47449	-1617.85535	1568.62268	-1422.38403	-1633.07471	1560.70972	-1292.36536	-1661.58142	1403.79993	-1378.63831	-1706.29395	1091.40405	-1394.34778	-1544.88477	1322.85376	-1364.78174	-1503.66003	1156.77161	-1373.81824	-1726.6825	1223.2738	-1297.78125	-1560.37097	1369.44385	-1519.0105	-1525.10498	1194.04565	-1617.95117	-1482.44495	1083.79248	-1650.84204	-1409.14197	976.73724	-1662.18701	-1347.5802	872.3172	-1644.17908	-1366.88794	876.60565	-1695.67371	-1315.83997	810.71448	-1697.94763	-1608.57764	1345.84155	-1212.16016	-1622.45483	1122.39233	-1140.71143	-1613.48853	1009.65051	-1127.14868	-1612.72107	872.55249	-1121.90601	-1592.20044	773.83929	-1152.55334	-1626.87488	773.14069	-1111.33069	-1608.18604	701.6734	-1115.86597	-1542.75317	926.43732	-1509.86121	-1546.41418	919.91577	-1270.43359	-1703.52051	954.00464	-1459.00635	-1707.71729	948.05194	-1312.4624	-1650.28662	637.55249	-1561.36597	-1690.02515	463.58658	-1532.32214	-1786.44885	288.94171	-1545.3761	-1854.99023	86.79661	-1518.84265	-1898.82715	54.44148	-1481.22644	-1709.30408	36.5165	-1516.79944	-1523.06873	631.82819	-1233.55469	-1435.72241	477.98093	-1278.99438	-1430.26392	286.85077	-1289.78296	-1399.78516	76.44006	-1349.47949	-1431.85876	41.69758	-1408.60486	-1259.01904	61.78068	-1356.38953	NaN	NaN	NaN	NaN	NaN	NaN	NaN	NaN	NaN	NaN	NaN	NaN	NaN	NaN	NaN	NaN	NaN	NaN	NaN	NaN	NaN	NaN	NaN	NaN	NaN	NaN	NaN
5	0.04	-1476.11279	1603.61401	-1405.30762	-1496.92322	1596.22278	-1274.21021	-1605.08899	1566.87341	-1424.48193	-1620.76306	1558.94739	-1294.55322	-1648.95789	1402.41382	-1380.52551	-1693.81787	1089.49243	-1395.19263	-1532.20068	1321.09558	-1366.84509	-1491.37793	1154.99878	-1376.27063	-1714.14856	1221.64832	-1299.65405	-1547.63464	1367.90002	-1520.69324	-1510.02368	1194.26245	-1620.42212	-1465.37659	1085.2594	-1653.91003	-1388.29199	980.88934	-1664.52832	-1322.599	879.48425	-1645.57495	-1341.88281	882.42322	-1697.03821	-1287.15027	820.17377	-1699.07288	-1595.90674	1344.01941	-1214.11304	-1612.01013	1121.04517	-1142.00989	-1604.50842	1008.28827	-1127.87524	-1606.42822	871.23309	-1121.63379	-1587.97144	771.69305	-1151.48767	-1622.68848	772.08575	-1110.17505	-1606.08923	700.04443	-1114.76709	-1531.03186	924.77667	-1512.35132	-1533.05457	918.19849	-1272.72791	-1692.17188	951.97852	-1460.1792	-1694.68762	945.9649	-1313.23755	-1640.75134	636.73853	-1562.70032	-1683.12048	463.25827	-1533.35962	-1782.26733	290.10495	-1545.85327	-1853.97339	89.05176	-1518.78931	-1898.1864	57.43273	-1481.17102	-1709.22058	36.19014	-1516.61536	-1511.33337	629.29492	-1233.26111	-1424.23328	475.8782	-1281.61243	-1409.58228	286.90439	-1288.98047	-1367.31763	77.37283	-1345.11108	-1397.69531	40.31157	-1403.50427	-1225.30713	69.17313	-1352.14331	NaN	NaN	NaN	NaN	NaN	NaN	NaN	NaN	NaN	NaN	NaN	NaN	NaN	NaN	NaN	NaN	NaN	NaN	NaN	NaN	NaN	NaN	NaN	NaN	NaN	NaN	NaN
